# xmcd
#
# Track frame offsets:
#	150
#	11220
#	23658
#	36736
#	48672
#	61903
#	73537
#	83671
#	96424
#	109610
#	116942
#	126523
#	138200
#	150598
#	167216
#
# Disc length: 2370 seconds
#
# Revision: 1
# Processed by: cddbd v1.5.2PL0 Copyright (c) Steve Scherf et al.
# Submitted via: audiograbber 1.83.01
#
DISCID=d409400f
DTITLE=Various Artist - Country Legends CD5 King Of The Road
DYEAR=2005
DGENRE=Country
TTITLE0=Roger Miller - King Of The Road
TTITLE1=Hank Williams - Last Night I Heard You Crying In Your Sleep
TTITLE2=Lynn Anderson - Rose Garden
TTITLE3=Waylon Jennings - Crying
TTITLE4=Loretta Lynn - Let Your Love Flow
TTITLE5=Kenny Rogers - Me And Bobby McGee
TTITLE6=Willie Nelson - Broken Promises
TTITLE7=Patsy Cline - Fingerprints
TTITLE8=Freddy Fender - Silver Wings
TTITLE9=Conway Twitty - Treat Me Mean Treat Me Cruel
TTITLE10=Dolly Parton - Girl Left Alone
TTITLE11=Ed Bruce - Baby That's Good
TTITLE12=Anne Murray - All The Time
TTITLE13=Jimmy Davis - You Are My Sunshine
TTITLE14=Billie Jo Spears - I'm So Lonesome I Could Cry
EXTD=
EXTT0=
EXTT1=
EXTT2=
EXTT3=
EXTT4=
EXTT5=
EXTT6=
EXTT7=
EXTT8=
EXTT9=
EXTT10=
EXTT11=
EXTT12=
EXTT13=
EXTT14=
PLAYORDER=
